<svg width="28" height="52" viewBox="0 0 28 52" fill="none" xmlns="http://www.w3.org/2000/svg">
<rect x="1.70117" y="25.4536" width="25.2165" height="3.56701" stroke="white" stroke-width="2"/>
<path d="M10.0862 21.598L11.713 16.1753H17.2398L18.5954 21.598H10.0862Z" stroke="white" stroke-width="2"/>
<path d="M10.1217 32.8761L11.6939 37.6802H16.9245L18.4967 32.8761H10.1217Z" stroke="white" stroke-width="2"/>
<mask id="path-4-inside-1" fill="white">
<path d="M11.252 0.948486H17.3659V13.1764H11.252V0.948486Z"/>
</mask>
<path d="M11.252 0.948486V-1.05151H9.25195V0.948486H11.252ZM17.3659 0.948486H19.3659V-1.05151H17.3659V0.948486ZM17.3659 13.1764V15.1764H19.3659V13.1764H17.3659ZM11.252 13.1764H9.25195V15.1764H11.252V13.1764ZM11.252 2.94849H17.3659V-1.05151H11.252V2.94849ZM15.3659 0.948486V13.1764H19.3659V0.948486H15.3659ZM17.3659 11.1764H11.252V15.1764H17.3659V11.1764ZM13.252 13.1764V0.948486H9.25195V13.1764H13.252Z" fill="white" mask="url(#path-4-inside-1)"/>
<mask id="path-6-inside-2" fill="white">
<path d="M11.252 40.4241H17.3659V51.1235H11.252V40.4241Z"/>
</mask>
<path d="M11.252 40.4241V38.4241H9.25195V40.4241H11.252ZM17.3659 40.4241H19.3659V38.4241H17.3659V40.4241ZM17.3659 51.1235V53.1235H19.3659V51.1235H17.3659ZM11.252 51.1235H9.25195V53.1235H11.252V51.1235ZM11.252 42.4241H17.3659V38.4241H11.252V42.4241ZM15.3659 40.4241V51.1235H19.3659V40.4241H15.3659ZM17.3659 49.1235H11.252V53.1235H17.3659V49.1235ZM13.252 51.1235V40.4241H9.25195V51.1235H13.252Z" fill="white" mask="url(#path-6-inside-2)"/>
<circle cx="14.3089" cy="4.65972" r="1.23711" fill="white"/>
<circle cx="14.3089" cy="47.3404" r="1.23711" fill="white"/>
</svg>
