<svg xmlns="http://www.w3.org/2000/svg" xmlns:xlink="http://www.w3.org/1999/xlink"><symbol id="icon-accessories-mobile" viewBox="0 0 20 42">
<path d="M13.8887 5.84555V16.1529C13.8887 16.2172 13.8887 16.346 13.8887 16.4103C13.6379 17.4403 12.0071 18.2127 10.0628 18.2127C8.11844 18.2127 6.4877 17.4403 6.23682 16.4103C6.23682 16.346 6.23682 16.2816 6.23682 16.1529V5.66052C6.23682 5.59615 6.23682 5.46741 6.29954 5.40304C6.61314 4.6306 8.18116 4.05127 10.1255 4.05127C12.0698 4.05127 13.7114 4.60844 13.795 5.40304C13.795 5.40304 13.8887 5.71681 13.8887 5.84555Z" stroke="white" stroke-width="2" stroke-miterlimit="10"/>
<path d="M9.99923 4.05135C9.56018 4.05135 9.24658 3.66513 9.24658 3.27891V1.66966C9.24658 1.21907 9.6229 0.897217 9.99923 0.897217C10.4383 0.897217 10.7519 1.28344 10.7519 1.66966V3.27891C10.7519 3.7295 10.4383 4.05135 9.99923 4.05135Z" fill="white"/>
<path d="M9.24645 2.12036C9.24645 2.12036 8.99557 3.47213 6.92578 4.11584H9.9991L9.24645 2.12036Z" fill="white"/>
<path d="M10.7517 2.12036C10.7517 2.12036 11.0026 3.47213 13.0723 4.11584H9.99902L10.7517 2.12036Z" fill="white"/>
<path d="M12.0698 18.0195H7.93018V20.1437H12.0698V18.0195Z" fill="white" fill-opacity="0.7"/>
<path d="M9.99994 21.4956C12.979 21.4956 15.3939 21.1497 15.3939 20.7231C15.3939 20.2965 12.979 19.9507 9.99994 19.9507C7.02093 19.9507 4.60596 20.2965 4.60596 20.7231C4.60596 21.1497 7.02093 21.4956 9.99994 21.4956Z" stroke="white" stroke-width="2" stroke-miterlimit="10"/>
<path d="M4.60596 20.4014V24.1348" stroke="white" stroke-width="2" stroke-miterlimit="10"/>
<path d="M15.394 20.7229V24.392" stroke="white" stroke-width="2" stroke-miterlimit="10"/>
<path d="M18.9689 24.9072C18.9689 25.6153 14.9548 26.7739 9.99983 26.7739C5.04489 26.7739 1.03076 25.6796 1.03076 24.9072C1.03076 24.6497 3.10055 23.5554 4.60585 23.5554C5.60938 23.8129 8.49454 24.0704 9.99983 24.0704C11.5051 24.0704 14.453 23.8129 15.3938 23.5554C16.9618 23.6198 18.9689 24.6497 18.9689 24.9072Z" stroke="white" stroke-width="2" stroke-miterlimit="10"/>
<path d="M15.3939 26.3235V32.0524C15.3939 32.6318 12.9478 33.0823 9.99994 33.0823C7.05207 33.0823 4.60596 32.6318 4.60596 32.0524V26.3235" stroke="white" stroke-width="2" stroke-miterlimit="10"/>
<path d="M6.11133 32.5671V38.3604" stroke="white" stroke-width="2" stroke-miterlimit="10"/>
<path d="M13.8887 32.5671V38.3604" stroke="white" stroke-width="2" stroke-miterlimit="10"/>
<path d="M11.0036 40.4848H8.99652C8.55748 40.4848 8.18115 40.0986 8.18115 39.648V33.0823H11.7562V39.648C11.819 40.0986 11.4426 40.4848 11.0036 40.4848Z" stroke="white" stroke-width="2" stroke-miterlimit="10"/>
</symbol><symbol id="icon-accessories" viewBox="0 0 31 65">
<path d="M21.7866 7.99994V24.6634C21.7866 24.7675 21.7866 24.9756 21.7866 25.0797C21.381 26.7447 18.7447 27.9935 15.6013 27.9935C12.458 27.9935 9.82161 26.7447 9.41602 25.0797C9.41602 24.9756 9.41602 24.8715 9.41602 24.6634V7.70081C9.41602 7.59674 9.41601 7.38861 9.51741 7.28455C10.0244 6.03577 12.5594 5.09918 15.7027 5.09918C18.8461 5.09918 21.5 5.99994 21.635 7.28455C21.635 7.28455 21.7866 7.79181 21.7866 7.99994Z" stroke="white" stroke-width="2" stroke-miterlimit="10"/>
<path d="M15.5 5.09919C14.7902 5.09919 14.2832 4.4748 14.2832 3.85041V1.24878C14.2832 0.520325 14.8916 0 15.5 0C16.2098 0 16.7168 0.62439 16.7168 1.24878V3.85041C16.7168 4.57886 16.2098 5.09919 15.5 5.09919Z" fill="white"/>
<path d="M14.283 1.97723C14.283 1.97723 13.8774 4.1626 10.5312 5.20325H15.4998L14.283 1.97723Z" fill="white"/>
<path d="M16.7168 1.97723C16.7168 1.97723 17.1224 4.1626 20.4685 5.20325H15.5L16.7168 1.97723Z" fill="white"/>
<path d="M18.8461 27.6813H12.1538V31.1154H18.8461V27.6813Z" fill="white" fill-opacity="0.7"/>
<path d="M15.5001 33.3008C20.3161 33.3008 24.2203 32.7417 24.2203 32.052C24.2203 31.3623 20.3161 30.8032 15.5001 30.8032C10.684 30.8032 6.77979 31.3623 6.77979 32.052C6.77979 32.7417 10.684 33.3008 15.5001 33.3008Z" stroke="white" stroke-width="2" stroke-miterlimit="10"/>
<path d="M6.77979 31.5318V37.5675" stroke="white" stroke-width="2" stroke-miterlimit="10"/>
<path d="M24.2202 32.0521V37.9838" stroke="white" stroke-width="2" stroke-miterlimit="10"/>
<path d="M30 38.8162C30 39.9609 23.5105 41.8341 15.5 41.8341C7.48951 41.8341 1 40.065 1 38.8162C1 38.4 4.34616 36.6309 6.77972 36.6309C8.4021 37.0471 13.0664 37.4634 15.5 37.4634C17.9336 37.4634 22.6993 37.0471 24.2203 36.6309C26.7552 36.7349 30 38.4 30 38.8162Z" stroke="white" stroke-width="2" stroke-miterlimit="10"/>
<path d="M24.2203 41.1057V50.3675C24.2203 51.3041 20.2658 52.0325 15.5001 52.0325C10.7343 52.0325 6.77979 51.3041 6.77979 50.3675V41.1057" stroke="white" stroke-width="2" stroke-miterlimit="10"/>
<path d="M9.21338 51.2V60.5658" stroke="white" stroke-width="2" stroke-miterlimit="10"/>
<path d="M21.7866 51.2V60.5658" stroke="white" stroke-width="2" stroke-miterlimit="10"/>
<path d="M17.1225 64H13.8778C13.168 64 12.5596 63.3756 12.5596 62.6472V52.0325H18.3393V62.6472C18.4407 63.3756 17.8323 64 17.1225 64Z" stroke="white" stroke-width="2" stroke-miterlimit="10"/>
</symbol><symbol id="icon-accumulator-mobile" viewBox="0 0 39 31">
<rect x="3.60791" y="12.9792" width="31.4021" height="16.5567" stroke="white" stroke-width="2"/>
<rect x="1.13379" y="6.79395" width="36.3505" height="2.3299" rx="1.16495" stroke="white" stroke-width="2"/>
<rect x="10.3399" y="1.15464" width="17.9381" height="1.85567" stroke="white" stroke-width="1.85567"/>
<path d="M4.46387 1.7732C4.46387 0.919149 5.15621 0.226807 6.01026 0.226807C6.86431 0.226807 7.55665 0.91915 7.55665 1.7732V3.93815H4.46387V1.7732Z" fill="white"/>
<path d="M31.062 2.08248C31.062 1.05762 31.8928 0.226807 32.9177 0.226807C33.9425 0.226807 34.7734 1.05762 34.7734 2.08248V3.93815H31.062V2.08248Z" fill="white"/>
<rect x="26.5732" y="17.5994" width="1.10888" height="7.02288" rx="0.554438" fill="white"/>
<rect x="23.6167" y="21.665" width="1.10888" height="7.02288" rx="0.554438" transform="rotate(-90 23.6167 21.665)" fill="white"/>
<rect x="8.17529" y="21.8765" width="1.23711" height="6.80412" rx="0.618557" transform="rotate(-90 8.17529 21.8765)" fill="white"/>
</symbol><symbol id="icon-accumulator" viewBox="0 0 62 49">
<rect x="5" y="20" width="52" height="28" stroke="white" stroke-width="2"/>
<rect x="1" y="10" width="60" height="5" rx="2.5" stroke="white" stroke-width="2"/>
<rect x="16" y="1" width="30" height="4" stroke="white" stroke-width="2"/>
<path d="M7 2.5C7 1.11929 8.11929 0 9.5 0C10.8807 0 12 1.11929 12 2.5V6H7V2.5Z" fill="white"/>
<path d="M50 3C50 1.34315 51.3431 0 53 0C54.6569 0 56 1.34315 56 3V6H50V3Z" fill="white"/>
<rect x="42.7437" y="28.0853" width="1.79268" height="11.3537" rx="0.896341" fill="white"/>
<rect x="37.9634" y="34.6585" width="1.79268" height="11.3537" rx="0.896341" transform="rotate(-90 37.9634 34.6585)" fill="white"/>
<rect x="13" y="35" width="2" height="11" rx="1" transform="rotate(-90 13 35)" fill="white"/>
</symbol><symbol id="icon-bag" viewBox="0 0 60 40">
<path d="M0 10C0 4.47715 4.47715 0 10 0H60V40H0V10Z" fill="#FF7931"/>
<path d="M20 13.5385V32H40V13.5385H20ZM24.5455 13.5385C24.5455 13.5385 24.5455 8 30 8C35.4545 8 35.4545 13.5385 35.4545 13.5385" fill="#FF7931"/>
<path d="M24.5455 13.5385C24.5455 13.5385 24.5455 8 30 8C35.4545 8 35.4545 13.5385 35.4545 13.5385M20 13.5385V32H40V13.5385H20Z" stroke="white" stroke-width="2" stroke-linecap="round" stroke-linejoin="round"/>
</symbol><symbol id="icon-cart-mobile" viewBox="0 0 21 25">
<path d="M10.3478 0.831909C6.35825 0.831909 3.10435 4.04643 3.10435 7.98771C3.10435 10.4355 4.36549 12.6078 6.27337 13.8976C2.57079 15.455 0 19.0888 0 23.3216H2.06957C2.06957 18.7573 5.72768 15.1435 10.3478 15.1435C14.968 15.1435 18.6261 18.7573 18.6261 23.3216H20.6957C20.6957 19.0888 18.1249 15.455 14.4223 13.8976C16.3302 12.6078 17.5913 10.4355 17.5913 7.98771C17.5913 4.04643 14.3374 0.831909 10.3478 0.831909ZM10.3478 2.87642C13.2177 2.87642 15.5217 5.15254 15.5217 7.98771C15.5217 10.8229 13.2177 13.099 10.3478 13.099C7.47792 13.099 5.17391 10.8229 5.17391 7.98771C5.17391 5.15254 7.47792 2.87642 10.3478 2.87642Z" fill="#A8A8A8"/>
<ellipse cx="1.03478" cy="23.3216" rx="1.03478" ry="1.02226" fill="#A8A8A8"/>
<ellipse cx="19.6608" cy="23.3216" rx="1.03478" ry="1.02226" fill="#A8A8A8"/>
</symbol><symbol id="icon-cart" viewBox="0 0 30 28">
<path d="M0 1.93616H3.88425C4.33141 1.93616 4.72423 2.23303 4.84628 2.66321L9.07372 17.5635C9.19577 17.9937 9.58859 18.2906 10.0358 18.2906H24.7568C25.2075 18.2906 25.6025 17.9892 25.7214 17.5545L28.6542 6.83436C28.8283 6.19804 28.3494 5.57048 27.6897 5.57048H5.67111" stroke="#A8A8A8" stroke-width="2"/>
<path d="M15 23.9125C15 25.3568 13.8602 26.49 12.5 26.49C11.1398 26.49 10 25.3568 10 23.9125C10 22.4682 11.1398 21.335 12.5 21.335C13.8602 21.335 15 22.4682 15 23.9125Z" stroke="#A8A8A8" stroke-width="2"/>
<path d="M24 23.9125C24 25.3568 22.8602 26.49 21.5 26.49C20.1398 26.49 19 25.3568 19 23.9125C19 22.4682 20.1398 21.335 21.5 21.335C22.8602 21.335 24 22.4682 24 23.9125Z" stroke="#A8A8A8" stroke-width="2"/>
</symbol><symbol id="icon-flake" viewBox="0 0 28 31">
<path d="M27.3659 19.0904L26.8266 17.0477L21.2965 18.5077L18.8585 17.047V13.6654L21.4823 12.1424L27.1395 13.6414L27.6802 11.5987L24.068 10.6416L27.6788 8.54562L26.6182 6.71818L23.0495 8.78964L23.9832 5.25144L21.9404 4.71223L20.4691 10.2875L17.8006 11.8364L14.8844 10.1531V7.13661L19.0146 3.03434L17.5262 1.53495L14.8844 4.15888V0H12.7715V4.13066L10.1782 1.53757L8.6843 3.03147L12.7715 7.1183V10.153L9.85466 11.8369L7.24338 10.3286L7.24368 10.3285L5.76079 4.71206L3.71805 5.25127L4.66548 8.83955L1.05877 6.75615L0.00160314 8.5857L3.58777 10.6572L0.0222757 11.5985L0.56149 13.6413L6.17799 12.1584L6.17639 12.1525L8.79812 13.6668V17.1119L6.16466 18.6404L0.561406 17.161L0.0221912 19.2038L3.57684 20.1423L0 22.2184L1.06062 24.0453L4.67325 21.9486L3.71856 25.5508L5.76062 26.0915L7.25579 20.4498L9.92034 18.9034L12.7715 20.5499V23.6842L8.68434 27.771L10.1782 29.2649L12.7715 26.6718V30.8028H14.8844V26.6435L17.5256 29.2676L19.0153 27.7682L14.8844 23.6642V20.5499L17.7921 18.871L20.4557 20.467L21.6151 25.9263L23.6813 25.4876L22.93 21.9495L26.2922 23.964L27.3775 22.151L23.8281 20.0244L27.3659 19.0904ZM16.7456 17.0353L13.828 18.7196L10.9111 17.0353V13.6672L13.828 11.9828L16.7456 13.6672V17.0353Z" fill="#6CA7FF"/>
</symbol><symbol id="icon-heart" viewBox="0 0 27 25">
<path fill-rule="evenodd" clip-rule="evenodd" d="M7.36656 1.2063C3.47849 1.2063 0.392496 4.77288 1.10209 9.89202C1.71793 14.3349 12.3223 23.2063 13.5 23.2063C14.6777 23.2063 25.2821 14.3349 25.8979 9.89202C26.6075 4.77277 23.5215 1.2063 19.6334 1.2063C17.0414 1.2063 15.0222 2.2961 13.5 4.47569C11.9778 2.2961 9.9586 1.2063 7.36656 1.2063Z" stroke="#A8A8A8" stroke-width="2"/>
</symbol><symbol id="icon-oil-mobile" viewBox="0 0 29 41">
<path d="M22.7327 5.22689C22.7327 5.22689 22.7327 6.64958 23.2894 7.63927C23.6605 8.25782 25.578 10.9795 26.7533 12.4022C27.4956 13.2681 27.31 14.1341 27.31 14.3197V38.2578C27.31 38.8145 26.8152 39.1857 26.1347 39.1857H3.18629C2.56773 39.1857 2.32031 38.8145 2.32031 38.2578V17.8455C2.32031 15.9279 2.93887 14.1341 4.79454 12.897L15.9904 7.57741C16.9182 7.14442 17.5368 6.3403 17.5987 5.47432C17.5987 5.35061 17.5987 5.28875 17.5987 5.16504H22.7327V5.22689Z" stroke="white" stroke-width="3" stroke-miterlimit="10"/>
<path d="M22.7324 5.53624H17.1654C16.7943 5.53624 16.5469 5.22697 16.5469 4.91769V2.13418C16.5469 1.76305 16.8562 1.51562 17.1654 1.51562H22.7324C23.1036 1.51562 23.351 1.8249 23.351 2.13418V4.91769C23.351 5.22697 23.0417 5.53624 22.7324 5.53624Z" stroke="white" stroke-width="3" stroke-miterlimit="10"/>
<path d="M11.5991 29.0415H23.9703" stroke="white" stroke-width="3" stroke-miterlimit="10"/>
<path d="M11.5991 33.9897H19.6404" stroke="white" stroke-width="3" stroke-miterlimit="10"/>
</symbol><symbol id="icon-oil" viewBox="0 0 44 65">
<path d="M35 8.00002C35 8.00002 35 10.3 35.9 11.9C36.5 12.9 39.6 17.3 41.5 19.6C42.7 21 42.4 22.4 42.4 22.7V61.4C42.4 62.3 41.6 62.9 40.5 62.9H3.4C2.4 62.9 2 62.3 2 61.4V28.4C2 25.3 3 22.4 6 20.4L24.1 11.8C25.6 11.1 26.6 9.80002 26.7 8.40002C26.7 8.20002 26.7 8.10002 26.7 7.90002H35V8.00002Z" stroke="white" stroke-width="3" stroke-miterlimit="10"/>
<path d="M35 8.5H26C25.4 8.5 25 8 25 7.5V3C25 2.4 25.5 2 26 2H35C35.6 2 36 2.5 36 3V7.5C36 8 35.5 8.5 35 8.5Z" stroke="white" stroke-width="3" stroke-miterlimit="10"/>
<path d="M17 46.5H37" stroke="white" stroke-width="3" stroke-miterlimit="10"/>
<path d="M17 54.5H30" stroke="white" stroke-width="3" stroke-miterlimit="10"/>
</symbol><symbol id="icon-pointer" viewBox="0 0 35 35">
<path d="M13.6561 23.7113L12.8073 24.24L13.6561 23.7113C13.372 23.2552 12.9164 22.9327 12.392 22.8163L12.1752 23.7925L12.3919 22.8163L1.49747 20.3979L23.9518 7.82864L19.5566 33.1835L13.6561 23.7113Z" stroke="#A8A8A8" stroke-width="2"/>
</symbol><symbol id="icon-search" viewBox="0 0 23 24">
<path d="M22.7251 22.2056L17.2663 16.8577C19.0463 15.0556 20.1737 12.6142 20.1737 9.88208C20.1737 4.41787 15.6643 0 10.0868 0C4.50941 0 0 4.41787 0 9.88208C0 15.3463 4.50941 19.7642 10.0868 19.7642C12.2229 19.7642 14.2403 19.0666 15.9016 17.9621L21.479 23.4263C21.6571 23.6007 21.8944 23.6589 22.1317 23.6589C22.3691 23.6589 22.6064 23.6007 22.7844 23.4263C23.0811 23.0776 23.0811 22.5544 22.7251 22.2056ZM1.78003 9.88208C1.78003 5.40608 5.5181 1.7439 10.0868 1.7439C14.6556 1.7439 18.3937 5.40608 18.3937 9.88208C18.3937 14.3581 14.6556 18.0203 10.0868 18.0203C5.5181 18.0203 1.78003 14.3581 1.78003 9.88208Z" fill="#48494D"/>
</symbol><symbol id="icon-spare-parts-mobile" viewBox="0 0 35 36">
<circle cx="17.691" cy="18.0001" r="16.0103" stroke="white" stroke-width="2"/>
<circle cx="17.6909" cy="17.9999" r="7.87494" stroke="white" stroke-width="2"/>
<circle cx="5.48762" cy="18.3699" r="1.84895" fill="white"/>
<circle cx="29.8929" cy="18.3699" r="1.84895" fill="white"/>
<circle cx="27.3048" cy="10.6046" r="1.47916" fill="white"/>
<circle cx="21.3883" cy="6.1669" r="1.47916" fill="white"/>
<circle cx="13.9923" cy="6.1669" r="1.47916" fill="white"/>
<circle cx="8.07584" cy="10.6046" r="1.47916" fill="white"/>
<circle r="1.47916" transform="matrix(-1 0 0 1 27.3055 25.3961)" fill="white"/>
<circle r="1.47916" transform="matrix(-1 0 0 1 21.3885 29.8334)" fill="white"/>
<circle r="1.47916" transform="matrix(-1 0 0 1 13.9915 29.8334)" fill="white"/>
<circle r="1.47916" transform="matrix(-1 0 0 1 8.07504 25.3961)" fill="white"/>
</symbol><symbol id="icon-spare-parts" viewBox="0 0 56 55">
<circle cx="28" cy="27.5" r="26.5" stroke="white" stroke-width="2"/>
<circle cx="28.0002" cy="27.5" r="13.3478" stroke="white" stroke-width="2"/>
<circle cx="8.27184" cy="28.0978" r="2.98913" fill="white"/>
<circle cx="47.7284" cy="28.0978" r="2.98913" fill="white"/>
<circle cx="43.5436" cy="15.5435" r="2.3913" fill="white"/>
<circle cx="33.9782" cy="8.36951" r="2.3913" fill="white"/>
<circle cx="22.0217" cy="8.36951" r="2.3913" fill="white"/>
<circle cx="12.4562" cy="15.5435" r="2.3913" fill="white"/>
<circle r="2.3913" transform="matrix(-1 0 0 1 43.5428 39.4565)" fill="white"/>
<circle r="2.3913" transform="matrix(-1 0 0 1 33.9773 46.6304)" fill="white"/>
<circle r="2.3913" transform="matrix(-1 0 0 1 22.0208 46.6304)" fill="white"/>
<circle r="2.3913" transform="matrix(-1 0 0 1 12.4559 39.4565)" fill="white"/>
</symbol><symbol id="icon-sun" viewBox="0 0 31 31">
<path d="M6.52246 8.51569C7.07749 9.06931 7.97061 9.07776 8.52423 8.52414C9.07363 7.97474 9.07786 7.08585 8.51437 6.52237L6.54218 4.55018C5.98574 3.99374 5.09544 3.98529 4.54041 4.54032C3.98961 5.08971 3.98538 5.9772 4.55027 6.54209L6.52246 8.51569Z" fill="#FF7931"/>
<path d="M29.5787 14.0913H26.7894C26.002 14.0913 25.3652 14.7168 25.3652 15.5C25.3652 16.279 25.9893 16.9087 26.7894 16.9087H29.5787C30.3661 16.9087 31.0001 16.2847 31.0001 15.5C31.0001 14.7224 30.3746 14.0913 29.5787 14.0913Z" fill="#FF7931"/>
<path d="M5.63483 15.5C5.63483 14.7224 5.00936 14.0913 4.21203 14.0913H1.42139C0.635327 14.0913 0 14.7168 0 15.5C0 16.279 0.624057 16.9087 1.42139 16.9087H4.21203C4.99809 16.9087 5.63483 16.2847 5.63483 15.5Z" fill="#FF7931"/>
<path d="M15.5001 7.04395C10.833 7.04395 7.04785 10.8291 7.04785 15.4962C7.04785 20.1632 10.833 23.9484 15.5001 23.9484C20.1657 23.9484 23.9523 20.1632 23.9523 15.4962C23.9523 10.8291 20.1657 7.04395 15.5001 7.04395ZM15.5001 21.131C12.3883 21.131 9.86527 18.608 9.86527 15.4962C9.86527 12.3844 12.3883 9.86136 15.5001 9.86136C18.6119 9.86136 21.1349 12.3844 21.1349 15.4962C21.1349 18.608 18.6119 21.131 15.5001 21.131Z" fill="#FF7931"/>
<path d="M6.52237 22.4858L4.55018 24.458C3.99374 25.0145 3.98529 25.9048 4.54032 26.4598C5.09112 27.0092 5.97861 27.0134 6.54209 26.4499L8.51428 24.4777C9.07072 23.9213 9.07917 23.031 8.52414 22.476C7.97334 21.9237 7.08585 21.9223 6.52237 22.4858Z" fill="#FF7931"/>
<path d="M24.4776 8.5157L26.4498 6.5421C27.0062 5.98566 27.0119 5.09536 26.4596 4.54033C25.9074 3.99094 25.0214 3.98671 24.4579 4.55019L22.4857 6.52238C21.9292 7.07882 21.9222 7.97053 22.4758 8.52415C23.028 9.07355 23.9141 9.07778 24.4776 8.5157Z" fill="#FF7931"/>
<path d="M15.5 25.3652C14.721 25.3652 14.0913 25.9907 14.0913 26.7894V29.5787C14.0913 30.3661 14.7168 31.0001 15.5 31.0001C16.279 31.0001 16.9087 30.3774 16.9087 29.5787V26.7894C16.9087 26.002 16.2847 25.3652 15.5 25.3652Z" fill="#FF7931"/>
<path d="M24.4777 22.4857C23.9212 21.9292 23.0309 21.9222 22.4759 22.4758C21.9265 23.028 21.9209 23.9141 22.4858 24.4776L24.458 26.4498C25.0144 27.0062 25.9047 27.0119 26.4597 26.4596C27.0105 25.9102 27.0148 25.0214 26.4499 24.4579L24.4777 22.4857Z" fill="#FF7931"/>
<path d="M15.5 5.63483C16.279 5.63483 16.9087 5.01077 16.9087 4.21203V1.42279C16.9087 0.636735 16.2847 0 15.5 0C14.721 0 14.0913 0.625466 14.0913 1.42279V4.21203C14.0913 4.99809 14.7168 5.63483 15.5 5.63483Z" fill="#FF7931"/>
</symbol><symbol id="icon-timer" viewBox="0 0 28 28">
<path fill-rule="evenodd" clip-rule="evenodd" d="M25.2 13.985C25.2 8.26735 20.9248 3.54933 15.4 2.85965V6.04525C15.4 6.81928 14.7732 7.44675 14 7.44675C13.2268 7.44675 12.6 6.81928 12.6 6.04525V2.30986C12.6 0.943199 13.7847 -0.0309289 14.9364 0.000750769C15.0048 0.0026329 15.0729 0.00895811 15.1409 0.0152728C15.1635 0.0173713 15.1861 0.0194688 15.2087 0.0214016C22.3748 0.63485 28 6.65228 28 13.985C28 21.7253 21.732 28 14 28C6.26801 28 0 21.7253 0 13.985C0 10.2186 1.49285 6.68527 4.10051 4.07481C4.64724 3.52749 5.53367 3.52749 6.08041 4.07481C6.62714 4.62213 6.62714 5.50952 6.08041 6.05684C3.99265 8.14685 2.8 10.9696 2.8 13.985C2.8 20.1772 7.81441 25.197 14 25.197C20.1856 25.197 25.2 20.1772 25.2 13.985ZM12.3929 15.6795C12.2632 15.5496 12.1519 15.4083 12.0591 15.2587L12.0563 15.2615L7.41486 7.77871C7.33329 7.6472 7.37366 7.47438 7.50503 7.39272C7.59549 7.33649 7.70998 7.33649 7.80044 7.39272L15.275 12.039L15.2722 12.0419C15.4217 12.1348 15.563 12.2462 15.6928 12.3762C16.604 13.2884 16.604 14.7673 15.6928 15.6795C14.7816 16.5917 13.3042 16.5917 12.3929 15.6795Z" fill="#C4C4C4"/>
</symbol><symbol id="icon-tools-mobile" viewBox="0 0 28 52">
<rect x="1.70117" y="25.4536" width="25.2165" height="3.56701" stroke="white" stroke-width="2"/>
<path d="M10.0862 21.598L11.713 16.1753H17.2398L18.5954 21.598H10.0862Z" stroke="white" stroke-width="2"/>
<path d="M10.1217 32.8761L11.6939 37.6802H16.9245L18.4967 32.8761H10.1217Z" stroke="white" stroke-width="2"/>
<mask id="path-4-inside-1" fill="white">
<path d="M11.252 0.948486H17.3659V13.1764H11.252V0.948486Z"/>
</mask>
<path d="M11.252 0.948486V-1.05151H9.25195V0.948486H11.252ZM17.3659 0.948486H19.3659V-1.05151H17.3659V0.948486ZM17.3659 13.1764V15.1764H19.3659V13.1764H17.3659ZM11.252 13.1764H9.25195V15.1764H11.252V13.1764ZM11.252 2.94849H17.3659V-1.05151H11.252V2.94849ZM15.3659 0.948486V13.1764H19.3659V0.948486H15.3659ZM17.3659 11.1764H11.252V15.1764H17.3659V11.1764ZM13.252 13.1764V0.948486H9.25195V13.1764H13.252Z" fill="white" mask="url(#path-4-inside-1)"/>
<mask id="path-6-inside-2" fill="white">
<path d="M11.252 40.4241H17.3659V51.1235H11.252V40.4241Z"/>
</mask>
<path d="M11.252 40.4241V38.4241H9.25195V40.4241H11.252ZM17.3659 40.4241H19.3659V38.4241H17.3659V40.4241ZM17.3659 51.1235V53.1235H19.3659V51.1235H17.3659ZM11.252 51.1235H9.25195V53.1235H11.252V51.1235ZM11.252 42.4241H17.3659V38.4241H11.252V42.4241ZM15.3659 40.4241V51.1235H19.3659V40.4241H15.3659ZM17.3659 49.1235H11.252V53.1235H17.3659V49.1235ZM13.252 51.1235V40.4241H9.25195V51.1235H13.252Z" fill="white" mask="url(#path-6-inside-2)"/>
<circle cx="14.3089" cy="4.65972" r="1.23711" fill="white"/>
<circle cx="14.3089" cy="47.3404" r="1.23711" fill="white"/>
</symbol><symbol id="icon-tools" viewBox="0 0 44 82">
<rect x="1" y="39" width="42" height="7" stroke="white" stroke-width="2"/>
<path d="M14.344 34L17.344 24H27.2192L29.7192 34H14.344Z" stroke="white" stroke-width="2"/>
<path d="M14.3795 51L17.3249 60H26.6751L29.6205 51H14.3795Z" stroke="white" stroke-width="2"/>
<mask id="path-4-inside-1" fill="white">
<path d="M17.0576 0H26.9419V19.7685H17.0576V0Z"/>
</mask>
<path d="M17.0576 0V-2H15.0576V0H17.0576ZM26.9419 0H28.9419V-2H26.9419V0ZM26.9419 19.7685V21.7685H28.9419V19.7685H26.9419ZM17.0576 19.7685H15.0576V21.7685H17.0576V19.7685ZM17.0576 2H26.9419V-2H17.0576V2ZM24.9419 0V19.7685H28.9419V0H24.9419ZM26.9419 17.7685H17.0576V21.7685H26.9419V17.7685ZM19.0576 19.7685V0H15.0576V19.7685H19.0576Z" fill="white" mask="url(#path-4-inside-1)"/>
<mask id="path-6-inside-2" fill="white">
<path d="M17.0576 63.8188H26.9419V81.1163H17.0576V63.8188Z"/>
</mask>
<path d="M17.0576 63.8188V61.8188H15.0576V63.8188H17.0576ZM26.9419 63.8188H28.9419V61.8188H26.9419V63.8188ZM26.9419 81.1163V83.1163H28.9419V81.1163H26.9419ZM17.0576 81.1163H15.0576V83.1163H17.0576V81.1163ZM17.0576 65.8188H26.9419V61.8188H17.0576V65.8188ZM24.9419 63.8188V81.1163H28.9419V63.8188H24.9419ZM26.9419 79.1163H17.0576V83.1163H26.9419V79.1163ZM19.0576 81.1163V63.8188H15.0576V81.1163H19.0576Z" fill="white" mask="url(#path-6-inside-2)"/>
<circle cx="22" cy="6" r="2" fill="white"/>
<circle cx="22" cy="75" r="2" fill="white"/>
</symbol><symbol id="icon-user-mobile" viewBox="0 0 27 24">
<path d="M0 1.83191H3.31429C3.75854 1.83191 4.14952 2.12499 4.27414 2.5514L7.91748 15.018C8.0421 15.4444 8.43308 15.7375 8.87733 15.7375H21.5942C22.042 15.7375 22.4352 15.4398 22.5567 15.0088L25.041 6.19329C25.2208 5.55527 24.7413 4.92205 24.0785 4.92205H8.12775" stroke="#A8A8A8" stroke-width="2"/>
<path d="M13.2237 20.3727C13.2237 21.5401 12.2939 22.4629 11.1758 22.4629C10.0577 22.4629 9.12793 21.5401 9.12793 20.3727C9.12793 19.2054 10.0577 18.2826 11.1758 18.2826C12.2939 18.2826 13.2237 19.2054 13.2237 20.3727Z" stroke="#A8A8A8" stroke-width="2"/>
<path d="M21.3512 20.3727C21.3512 21.5401 20.4214 22.4629 19.3033 22.4629C18.1852 22.4629 17.2554 21.5401 17.2554 20.3727C17.2554 19.2054 18.1852 18.2826 19.3033 18.2826C20.4214 18.2826 21.3512 19.2054 21.3512 20.3727Z" stroke="#A8A8A8" stroke-width="2"/>
</symbol><symbol id="icon-user" viewBox="0 0 24 26">
<path d="M12 14.9925C14.75 14.9925 17.5 12.7854 17.5 8.62105C17.5 4.45673 15.6667 1.95813 12 1.95813C8.33333 1.95813 6.5 5.33123 6.5 8.62105C6.5 12.7854 9.25 14.9925 12 14.9925ZM12 14.9925C17.5 14.9925 23 19.3858 23 24.4455H1C1 19.948 6.5 14.9925 12 14.9925Z" stroke="#A8A8A8" stroke-width="2" stroke-linecap="round" stroke-linejoin="round"/>
</symbol><symbol id="icon-wheel-mobile" viewBox="0 0 42 42">
<path d="M20.6183 40.1031C31.3793 40.1031 40.1029 31.3796 40.1029 20.6186C40.1029 9.85756 31.3793 1.13403 20.6183 1.13403C9.85731 1.13403 1.13379 9.85756 1.13379 20.6186C1.13379 31.3796 9.85731 40.1031 20.6183 40.1031Z" stroke="white" stroke-width="2" stroke-miterlimit="10"/>
<path d="M20.6193 35.5909C28.8883 35.5909 35.5916 28.8876 35.5916 20.6186C35.5916 12.3496 28.8883 5.64624 20.6193 5.64624C12.3503 5.64624 5.64697 12.3496 5.64697 20.6186C5.64697 28.8876 12.3503 35.5909 20.6193 35.5909Z" stroke="white" stroke-width="2" stroke-miterlimit="10"/>
<path d="M20.6188 26.703C23.9793 26.703 26.7035 23.9788 26.7035 20.6183C26.7035 17.2579 23.9793 14.5337 20.6188 14.5337C17.2584 14.5337 14.5342 17.2579 14.5342 20.6183C14.5342 23.9788 17.2584 26.703 20.6188 26.703Z" stroke="white" stroke-width="2" stroke-miterlimit="10"/>
<path d="M20.6185 23.9001C22.4687 23.9001 23.9685 22.4003 23.9685 20.5502C23.9685 18.7 22.4687 17.2002 20.6185 17.2002C18.7684 17.2002 17.2686 18.7 17.2686 20.5502C17.2686 22.4003 18.7684 23.9001 20.6185 23.9001Z" stroke="white" stroke-width="2" stroke-miterlimit="10"/>
<path d="M15.9019 6.39844C16.0386 7.01374 16.1754 7.69741 16.1754 8.31271C16.1754 12.6198 12.6887 16.1065 8.38156 16.1065C7.69789 16.1065 7.08259 16.0382 6.46729 15.8331" stroke="white" stroke-width="2" stroke-miterlimit="10"/>
<path d="M25.3365 6.39844C25.1997 7.01374 25.063 7.69741 25.063 8.31271C25.063 12.6198 28.5497 16.1065 32.8568 16.1065C33.5405 16.1065 34.1558 16.0382 34.7711 15.8331" stroke="white" stroke-width="2" stroke-miterlimit="10"/>
<path d="M15.9019 34.8389C16.0386 34.2236 16.1754 33.54 16.1754 32.9247C16.1754 28.6176 12.6887 25.1309 8.38156 25.1309C7.69789 25.1309 7.08259 25.1992 6.46729 25.4043" stroke="white" stroke-width="2" stroke-miterlimit="10"/>
<path d="M25.3365 34.8389C25.1997 34.2236 25.063 33.54 25.063 32.9247C25.063 28.6176 28.5497 25.1309 32.8568 25.1309C33.5405 25.1309 34.1558 25.1992 34.7711 25.4043" stroke="white" stroke-width="2" stroke-miterlimit="10"/>
</symbol><symbol id="icon-wheel" viewBox="0 0 65 65">
<path d="M32.5 64C49.897 64 64 49.897 64 32.5C64 15.103 49.897 1 32.5 1C15.103 1 1 15.103 1 32.5C1 49.897 15.103 64 32.5 64Z" stroke="white" stroke-width="2" stroke-miterlimit="10"/>
<path d="M32.5002 56.7053C45.8684 56.7053 56.7054 45.8682 56.7054 32.5C56.7054 19.1318 45.8684 8.29474 32.5002 8.29474C19.132 8.29474 8.29492 19.1318 8.29492 32.5C8.29492 45.8682 19.132 56.7053 32.5002 56.7053Z" stroke="white" stroke-width="2" stroke-miterlimit="10"/>
<path d="M32.4999 42.3368C37.9327 42.3368 42.3368 37.9327 42.3368 32.5C42.3368 27.0673 37.9327 22.6631 32.4999 22.6631C27.0672 22.6631 22.6631 27.0673 22.6631 32.5C22.6631 37.9327 27.0672 42.3368 32.4999 42.3368Z" stroke="white" stroke-width="2" stroke-miterlimit="10"/>
<path d="M32.4998 37.8053C35.4908 37.8053 37.9156 35.3805 37.9156 32.3895C37.9156 29.3984 35.4908 26.9737 32.4998 26.9737C29.5087 26.9737 27.084 29.3984 27.084 32.3895C27.084 35.3805 29.5087 37.8053 32.4998 37.8053Z" stroke="white" stroke-width="2" stroke-miterlimit="10"/>
<path d="M24.8737 9.51056C25.0948 10.5053 25.3158 11.6106 25.3158 12.6053C25.3158 19.5685 19.679 25.2053 12.7158 25.2053C11.6106 25.2053 10.6158 25.0948 9.62109 24.7632" stroke="white" stroke-width="2" stroke-miterlimit="10"/>
<path d="M40.1262 9.51056C39.9051 10.5053 39.6841 11.6106 39.6841 12.6053C39.6841 19.5685 45.3209 25.2053 52.2841 25.2053C53.3893 25.2053 54.3841 25.0948 55.3788 24.7632" stroke="white" stroke-width="2" stroke-miterlimit="10"/>
<path d="M24.8737 55.4894C25.0948 54.4947 25.3158 53.3894 25.3158 52.3947C25.3158 45.4315 19.679 39.7947 12.7158 39.7947C11.6106 39.7947 10.6158 39.9052 9.62109 40.2368" stroke="white" stroke-width="2" stroke-miterlimit="10"/>
<path d="M40.1262 55.4895C39.9051 54.4947 39.6841 53.3895 39.6841 52.3947C39.6841 45.4316 45.3209 39.7947 52.2841 39.7947C53.3893 39.7947 54.3841 39.9053 55.3788 40.2368" stroke="white" stroke-width="2" stroke-miterlimit="10"/>
</symbol></svg>