<svg width="29" height="41" viewBox="0 0 29 41" fill="none" xmlns="http://www.w3.org/2000/svg">
<path d="M22.7327 5.22689C22.7327 5.22689 22.7327 6.64958 23.2894 7.63927C23.6605 8.25782 25.578 10.9795 26.7533 12.4022C27.4956 13.2681 27.31 14.1341 27.31 14.3197V38.2578C27.31 38.8145 26.8152 39.1857 26.1347 39.1857H3.18629C2.56773 39.1857 2.32031 38.8145 2.32031 38.2578V17.8455C2.32031 15.9279 2.93887 14.1341 4.79454 12.897L15.9904 7.57741C16.9182 7.14442 17.5368 6.3403 17.5987 5.47432C17.5987 5.35061 17.5987 5.28875 17.5987 5.16504H22.7327V5.22689Z" stroke="white" stroke-width="3" stroke-miterlimit="10"/>
<path d="M22.7324 5.53624H17.1654C16.7943 5.53624 16.5469 5.22697 16.5469 4.91769V2.13418C16.5469 1.76305 16.8562 1.51562 17.1654 1.51562H22.7324C23.1036 1.51562 23.351 1.8249 23.351 2.13418V4.91769C23.351 5.22697 23.0417 5.53624 22.7324 5.53624Z" stroke="white" stroke-width="3" stroke-miterlimit="10"/>
<path d="M11.5991 29.0415H23.9703" stroke="white" stroke-width="3" stroke-miterlimit="10"/>
<path d="M11.5991 33.9897H19.6404" stroke="white" stroke-width="3" stroke-miterlimit="10"/>
</svg>
