<svg width="42" height="42" viewBox="0 0 42 42" fill="none" xmlns="http://www.w3.org/2000/svg">
<path d="M20.6183 40.1031C31.3793 40.1031 40.1029 31.3796 40.1029 20.6186C40.1029 9.85756 31.3793 1.13403 20.6183 1.13403C9.85731 1.13403 1.13379 9.85756 1.13379 20.6186C1.13379 31.3796 9.85731 40.1031 20.6183 40.1031Z" stroke="white" stroke-width="2" stroke-miterlimit="10"/>
<path d="M20.6193 35.5909C28.8883 35.5909 35.5916 28.8876 35.5916 20.6186C35.5916 12.3496 28.8883 5.64624 20.6193 5.64624C12.3503 5.64624 5.64697 12.3496 5.64697 20.6186C5.64697 28.8876 12.3503 35.5909 20.6193 35.5909Z" stroke="white" stroke-width="2" stroke-miterlimit="10"/>
<path d="M20.6188 26.703C23.9793 26.703 26.7035 23.9788 26.7035 20.6183C26.7035 17.2579 23.9793 14.5337 20.6188 14.5337C17.2584 14.5337 14.5342 17.2579 14.5342 20.6183C14.5342 23.9788 17.2584 26.703 20.6188 26.703Z" stroke="white" stroke-width="2" stroke-miterlimit="10"/>
<path d="M20.6185 23.9001C22.4687 23.9001 23.9685 22.4003 23.9685 20.5502C23.9685 18.7 22.4687 17.2002 20.6185 17.2002C18.7684 17.2002 17.2686 18.7 17.2686 20.5502C17.2686 22.4003 18.7684 23.9001 20.6185 23.9001Z" stroke="white" stroke-width="2" stroke-miterlimit="10"/>
<path d="M15.9019 6.39844C16.0386 7.01374 16.1754 7.69741 16.1754 8.31271C16.1754 12.6198 12.6887 16.1065 8.38156 16.1065C7.69789 16.1065 7.08259 16.0382 6.46729 15.8331" stroke="white" stroke-width="2" stroke-miterlimit="10"/>
<path d="M25.3365 6.39844C25.1997 7.01374 25.063 7.69741 25.063 8.31271C25.063 12.6198 28.5497 16.1065 32.8568 16.1065C33.5405 16.1065 34.1558 16.0382 34.7711 15.8331" stroke="white" stroke-width="2" stroke-miterlimit="10"/>
<path d="M15.9019 34.8389C16.0386 34.2236 16.1754 33.54 16.1754 32.9247C16.1754 28.6176 12.6887 25.1309 8.38156 25.1309C7.69789 25.1309 7.08259 25.1992 6.46729 25.4043" stroke="white" stroke-width="2" stroke-miterlimit="10"/>
<path d="M25.3365 34.8389C25.1997 34.2236 25.063 33.54 25.063 32.9247C25.063 28.6176 28.5497 25.1309 32.8568 25.1309C33.5405 25.1309 34.1558 25.1992 34.7711 25.4043" stroke="white" stroke-width="2" stroke-miterlimit="10"/>
</svg>
