<svg width="20" height="42" viewBox="0 0 20 42" fill="none" xmlns="http://www.w3.org/2000/svg">
<path d="M13.8887 5.84555V16.1529C13.8887 16.2172 13.8887 16.346 13.8887 16.4103C13.6379 17.4403 12.0071 18.2127 10.0628 18.2127C8.11844 18.2127 6.4877 17.4403 6.23682 16.4103C6.23682 16.346 6.23682 16.2816 6.23682 16.1529V5.66052C6.23682 5.59615 6.23682 5.46741 6.29954 5.40304C6.61314 4.6306 8.18116 4.05127 10.1255 4.05127C12.0698 4.05127 13.7114 4.60844 13.795 5.40304C13.795 5.40304 13.8887 5.71681 13.8887 5.84555Z" stroke="white" stroke-width="2" stroke-miterlimit="10"/>
<path d="M9.99923 4.05135C9.56018 4.05135 9.24658 3.66513 9.24658 3.27891V1.66966C9.24658 1.21907 9.6229 0.897217 9.99923 0.897217C10.4383 0.897217 10.7519 1.28344 10.7519 1.66966V3.27891C10.7519 3.7295 10.4383 4.05135 9.99923 4.05135Z" fill="white"/>
<path d="M9.24645 2.12036C9.24645 2.12036 8.99557 3.47213 6.92578 4.11584H9.9991L9.24645 2.12036Z" fill="white"/>
<path d="M10.7517 2.12036C10.7517 2.12036 11.0026 3.47213 13.0723 4.11584H9.99902L10.7517 2.12036Z" fill="white"/>
<path d="M12.0698 18.0195H7.93018V20.1437H12.0698V18.0195Z" fill="white" fill-opacity="0.7"/>
<path d="M9.99994 21.4956C12.979 21.4956 15.3939 21.1497 15.3939 20.7231C15.3939 20.2965 12.979 19.9507 9.99994 19.9507C7.02093 19.9507 4.60596 20.2965 4.60596 20.7231C4.60596 21.1497 7.02093 21.4956 9.99994 21.4956Z" stroke="white" stroke-width="2" stroke-miterlimit="10"/>
<path d="M4.60596 20.4014V24.1348" stroke="white" stroke-width="2" stroke-miterlimit="10"/>
<path d="M15.394 20.7229V24.392" stroke="white" stroke-width="2" stroke-miterlimit="10"/>
<path d="M18.9689 24.9072C18.9689 25.6153 14.9548 26.7739 9.99983 26.7739C5.04489 26.7739 1.03076 25.6796 1.03076 24.9072C1.03076 24.6497 3.10055 23.5554 4.60585 23.5554C5.60938 23.8129 8.49454 24.0704 9.99983 24.0704C11.5051 24.0704 14.453 23.8129 15.3938 23.5554C16.9618 23.6198 18.9689 24.6497 18.9689 24.9072Z" stroke="white" stroke-width="2" stroke-miterlimit="10"/>
<path d="M15.3939 26.3235V32.0524C15.3939 32.6318 12.9478 33.0823 9.99994 33.0823C7.05207 33.0823 4.60596 32.6318 4.60596 32.0524V26.3235" stroke="white" stroke-width="2" stroke-miterlimit="10"/>
<path d="M6.11133 32.5671V38.3604" stroke="white" stroke-width="2" stroke-miterlimit="10"/>
<path d="M13.8887 32.5671V38.3604" stroke="white" stroke-width="2" stroke-miterlimit="10"/>
<path d="M11.0036 40.4848H8.99652C8.55748 40.4848 8.18115 40.0986 8.18115 39.648V33.0823H11.7562V39.648C11.819 40.0986 11.4426 40.4848 11.0036 40.4848Z" stroke="white" stroke-width="2" stroke-miterlimit="10"/>
</svg>
